<mxfile host="65bd71144e">
    <diagram id="-pii7lqVKWwWjModVP4k" name="Page-1">
        <mxGraphModel dx="1214" dy="964" grid="0" gridSize="10" guides="1" tooltips="1" connect="1" arrows="1" fold="1" page="1" pageScale="1" pageWidth="3300" pageHeight="2339" math="0" shadow="0">
            <root>
                <mxCell id="0"/>
                <mxCell id="1" parent="0"/>
                <mxCell id="24" value="" style="group;fontSize=10;" vertex="1" connectable="0" parent="1">
                    <mxGeometry x="356" y="175" width="2606" height="2000" as="geometry"/>
                </mxCell>
                <mxCell id="25" value="Container" style="swimlane;rounded=1;labelBorderColor=none;fontFamily=Helvetica;fontSize=11;fontColor=default;strokeColor=default;fillColor=#666666;html=1;swimlaneFillColor=#808080;" vertex="1" parent="24">
                    <mxGeometry width="2606" height="1999.9999999999998" as="geometry"/>
                </mxCell>
                <mxCell id="75" value="Frontend Compomnent Data flow" style="swimlane;html=1;startSize=20;horizontal=0;childLayout=flowLayout;flowOrientation=west;resizable=0;interRankCellSpacing=50;containerType=tree;sketch=0;swimlaneFillColor=none;" vertex="1" parent="25">
                    <mxGeometry x="1492.703506907545" y="742.9305912596401" width="694" height="358" as="geometry"/>
                </mxCell>
                <mxCell id="76" value="Backend(Node)" style="whiteSpace=wrap;html=1;rounded=1;strokeColor=#FFFFFF;" vertex="1" parent="75">
                    <mxGeometry x="40" y="165.4" width="100" height="40" as="geometry"/>
                </mxCell>
                <mxCell id="77" value="EventSource" style="whiteSpace=wrap;html=1;aspect=fixed;rounded=1;strokeColor=#FFFFFF;" vertex="1" parent="75">
                    <mxGeometry x="220.5" y="169.6" width="79" height="31.6" as="geometry"/>
                </mxCell>
                <mxCell id="78" value="" style="html=1;curved=1;noEdgeStyle=1;orthogonal=1;strokeColor=#FFFFFF;" edge="1" parent="75" source="76" target="77">
                    <mxGeometry relative="1" as="geometry">
                        <Array as="points">
                            <mxPoint x="156" y="185.4"/>
                            <mxPoint x="178" y="185.39999999999998"/>
                        </Array>
                    </mxGeometry>
                </mxCell>
                <mxCell id="79" value="Socket.io" style="whiteSpace=wrap;html=1;aspect=fixed;rounded=1;strokeColor=#FFFFFF;" vertex="1" parent="75">
                    <mxGeometry x="413" y="246.9125" width="59" height="23.6" as="geometry"/>
                </mxCell>
                <mxCell id="80" value="" style="html=1;curved=1;noEdgeStyle=1;orthogonal=1;strokeColor=#FFFFFF;" edge="1" parent="75" source="77" target="79">
                    <mxGeometry relative="1" as="geometry">
                        <Array as="points">
                            <mxPoint x="342" y="185.39999999999998"/>
                            <mxPoint x="368" y="250.84583333333333"/>
                        </Array>
                    </mxGeometry>
                </mxCell>
                <mxCell id="81" value="" style="edgeStyle=none;html=1;noEdgeStyle=1;orthogonal=1;strokeColor=#FFFFFF;" edge="1" parent="75" source="76" target="82">
                    <mxGeometry relative="1" as="geometry">
                        <Array as="points">
                            <mxPoint x="152" y="169.4"/>
                            <mxPoint x="178" y="45"/>
                        </Array>
                    </mxGeometry>
                </mxCell>
                <mxCell id="82" value="Response POST Req" style="whiteSpace=wrap;html=1;rounded=1;aspect=fixed;strokeColor=#FFFFFF;" vertex="1" parent="75">
                    <mxGeometry x="197.5" y="20" width="125" height="50" as="geometry"/>
                </mxCell>
                <mxCell id="83" value="" style="html=1;curved=1;noEdgeStyle=1;orthogonal=1;strokeColor=#FFFFFF;" edge="1" parent="75" source="76" target="84">
                    <mxGeometry relative="1" as="geometry">
                        <mxPoint x="2634" y="1644.1000000000001" as="sourcePoint"/>
                        <Array as="points">
                            <mxPoint x="154" y="177.4"/>
                            <mxPoint x="178" y="119.8"/>
                        </Array>
                    </mxGeometry>
                </mxCell>
                <mxCell id="84" value="Route Response" style="whiteSpace=wrap;html=1;aspect=fixed;rounded=1;strokeColor=#FFFFFF;" vertex="1" parent="75">
                    <mxGeometry x="210.5" y="100" width="99" height="39.6" as="geometry"/>
                </mxCell>
                <mxCell id="85" value="Component Address Set" style="whiteSpace=wrap;html=1;aspect=fixed;rounded=1;strokeColor=#FFFFFF;" vertex="1" parent="75">
                    <mxGeometry x="190" y="231.20000000000002" width="140" height="56" as="geometry"/>
                </mxCell>
                <mxCell id="86" value="" style="html=1;curved=1;noEdgeStyle=1;orthogonal=1;strokeColor=#FFFFFF;" edge="1" parent="75" source="85" target="79">
                    <mxGeometry relative="1" as="geometry">
                        <Array as="points">
                            <mxPoint x="342" y="259.20000000000005"/>
                            <mxPoint x="366" y="258.7125"/>
                        </Array>
                    </mxGeometry>
                </mxCell>
                <mxCell id="87" value="" style="html=1;curved=1;noEdgeStyle=1;orthogonal=1;strokeColor=#FFFFFF;" edge="1" parent="75" source="76" target="85">
                    <mxGeometry relative="1" as="geometry">
                        <Array as="points">
                            <mxPoint x="154" y="193.4"/>
                            <mxPoint x="178" y="259.20000000000005"/>
                        </Array>
                    </mxGeometry>
                </mxCell>
                <mxCell id="88" value="" style="html=1;curved=1;noEdgeStyle=1;orthogonal=1;strokeColor=#FFFFFF;" edge="1" parent="75" source="76" target="90">
                    <mxGeometry relative="1" as="geometry">
                        <mxPoint x="2514" y="1640.3500000000001" as="sourcePoint"/>
                        <Array as="points">
                            <mxPoint x="152" y="201.4"/>
                            <mxPoint x="178" y="327.80000000000007"/>
                        </Array>
                    </mxGeometry>
                </mxCell>
                <mxCell id="89" style="edgeStyle=none;html=1;exitX=1;exitY=0.5;exitDx=0;exitDy=0;entryX=0;entryY=0.5;entryDx=0;entryDy=0;noEdgeStyle=1;orthogonal=1;strokeColor=#FFFFFF;" edge="1" parent="75" source="90" target="79">
                    <mxGeometry relative="1" as="geometry">
                        <Array as="points">
                            <mxPoint x="342" y="327.80000000000007"/>
                            <mxPoint x="368" y="266.57916666666665"/>
                        </Array>
                    </mxGeometry>
                </mxCell>
                <mxCell id="90" value="Cookies" style="whiteSpace=wrap;html=1;rounded=1;aspect=fixed;strokeColor=#FFFFFF;" vertex="1" parent="75">
                    <mxGeometry x="233.5" y="317.20000000000005" width="53" height="21.2" as="geometry"/>
                </mxCell>
                <mxCell id="91" value="" style="html=1;curved=1;noEdgeStyle=1;orthogonal=1;strokeColor=#FFFFFF;" edge="1" parent="75" source="79" target="92">
                    <mxGeometry relative="1" as="geometry">
                        <mxPoint x="2584" y="1624.1000000000001" as="sourcePoint"/>
                        <Array as="points">
                            <mxPoint x="517" y="258.7125"/>
                            <mxPoint x="543" y="258.7125"/>
                        </Array>
                    </mxGeometry>
                </mxCell>
                <mxCell id="92" value="Server Eventhandler" style="whiteSpace=wrap;html=1;aspect=fixed;rounded=1;strokeColor=#FFFFFF;" vertex="1" parent="75">
                    <mxGeometry x="555" y="234.9125" width="119" height="47.6" as="geometry"/>
                </mxCell>
                <mxCell id="93" value="" style="html=1;curved=1;noEdgeStyle=1;orthogonal=1;strokeColor=#FFFFFF;" edge="1" parent="75" source="84" target="94">
                    <mxGeometry relative="1" as="geometry">
                        <mxPoint x="2394" y="1596.1000000000001" as="sourcePoint"/>
                        <Array as="points">
                            <mxPoint x="342" y="119.8"/>
                            <mxPoint x="368" y="119.8"/>
                        </Array>
                    </mxGeometry>
                </mxCell>
                <mxCell id="94" value="File with GET Method" style="whiteSpace=wrap;html=1;aspect=fixed;rounded=1;strokeColor=#FFFFFF;" vertex="1" parent="75">
                    <mxGeometry x="380" y="94.8" width="125" height="50" as="geometry"/>
                </mxCell>
                <mxCell id="95" value="" style="edgeStyle=none;html=1;noEdgeStyle=1;orthogonal=1;strokeColor=#FFFFFF;" edge="1" parent="75" source="82" target="96">
                    <mxGeometry relative="1" as="geometry">
                        <mxPoint x="2354" y="1568.1000000000001" as="sourcePoint"/>
                        <Array as="points">
                            <mxPoint x="342" y="45"/>
                            <mxPoint x="368" y="45"/>
                        </Array>
                    </mxGeometry>
                </mxCell>
                <mxCell id="96" value="POST Method" style="whiteSpace=wrap;html=1;aspect=fixed;rounded=1;strokeColor=#FFFFFF;" vertex="1" parent="75">
                    <mxGeometry x="399.5" y="27.8" width="86" height="34.4" as="geometry"/>
                </mxCell>
                <mxCell id="100" value="Addr Set Parser" style="shape=process;whiteSpace=wrap;html=1;backgroundOutline=1;" vertex="1" parent="25">
                    <mxGeometry x="1181" y="1524" width="120" height="60" as="geometry"/>
                </mxCell>
                <mxCell id="99" style="edgeStyle=orthogonalEdgeStyle;shape=flexArrow;curved=1;html=1;exitX=1;exitY=0.5;exitDx=0;exitDy=0;entryX=0;entryY=0.5;entryDx=0;entryDy=0;" edge="1" parent="24" source="26" target="75">
                    <mxGeometry relative="1" as="geometry"/>
                </mxCell>
                <mxCell id="26" value="Backend Data Flow" style="swimlane;html=1;startSize=20;horizontal=0;childLayout=flowLayout;flowOrientation=west;resizable=0;interRankCellSpacing=50;containerType=tree;swimlaneFillColor=none;gradientColor=none;" vertex="1" parent="24">
                    <mxGeometry x="477.72051009564285" y="974.2930591259641" width="654" height="169" as="geometry"/>
                </mxCell>
                <mxCell id="27" value="Socket.io" style="whiteSpace=wrap;html=1;rounded=1;" vertex="1" parent="26">
                    <mxGeometry x="214" y="57.844444444444456" width="100" height="40" as="geometry"/>
                </mxCell>
                <mxCell id="28" value="Server Cookie" style="whiteSpace=wrap;html=1;rounded=1;aspect=fixed;" vertex="1" parent="26">
                    <mxGeometry x="402" y="20" width="86" height="34.4" as="geometry"/>
                </mxCell>
                <mxCell id="29" value="" style="html=1;curved=1;noEdgeStyle=1;orthogonal=1;" edge="1" parent="26" source="27" target="28">
                    <mxGeometry relative="1" as="geometry">
                        <Array as="points">
                            <mxPoint x="326" y="70.34444444444446"/>
                            <mxPoint x="352" y="37.2"/>
                        </Array>
                    </mxGeometry>
                </mxCell>
                <mxCell id="30" value="EventSource data Stringified" style="whiteSpace=wrap;html=1;rounded=1;aspect=fixed;" vertex="1" parent="26">
                    <mxGeometry x="364" y="84.4" width="162" height="64.8" as="geometry"/>
                </mxCell>
                <mxCell id="31" value="Stringify" style="html=1;curved=1;noEdgeStyle=1;orthogonal=1;" edge="1" parent="26" source="27" target="30">
                    <mxGeometry relative="1" as="geometry">
                        <Array as="points">
                            <mxPoint x="326" y="85.34444444444446"/>
                            <mxPoint x="352" y="116.8"/>
                        </Array>
                    </mxGeometry>
                </mxCell>
                <mxCell id="32" value="Frontend" style="whiteSpace=wrap;html=1;rounded=1;aspect=fixed;" vertex="1" parent="26">
                    <mxGeometry x="576" y="65.4" width="58" height="23.2" as="geometry"/>
                </mxCell>
                <mxCell id="33" value="" style="html=1;curved=1;noEdgeStyle=1;orthogonal=1;" edge="1" parent="26" source="28" target="32">
                    <mxGeometry relative="1" as="geometry">
                        <Array as="points">
                            <mxPoint x="538" y="37.2"/>
                            <mxPoint x="564" y="71.2"/>
                        </Array>
                    </mxGeometry>
                </mxCell>
                <mxCell id="34" value="" style="html=1;curved=1;noEdgeStyle=1;orthogonal=1;" edge="1" parent="26" source="30" target="32">
                    <mxGeometry relative="1" as="geometry">
                        <Array as="points">
                            <mxPoint x="538" y="116.8"/>
                            <mxPoint x="564" y="82.80000000000001"/>
                        </Array>
                    </mxGeometry>
                </mxCell>
                <mxCell id="35" style="edgeStyle=none;html=1;exitX=1;exitY=0.5;exitDx=0;exitDy=0;entryX=0;entryY=0.5;entryDx=0;entryDy=0;noEdgeStyle=1;orthogonal=1;strokeColor=default;" edge="1" parent="26" source="36" target="27">
                    <mxGeometry relative="1" as="geometry">
                        <mxPoint x="3194" y="2156" as="sourcePoint"/>
                        <Array as="points">
                            <mxPoint x="176" y="77.84444444444445"/>
                            <mxPoint x="202" y="77.84444444444446"/>
                        </Array>
                    </mxGeometry>
                </mxCell>
                <mxCell id="36" value="EventSource Handler" style="whiteSpace=wrap;html=1;rounded=1;aspect=fixed;" vertex="1" parent="26">
                    <mxGeometry x="40" y="53.04444444444445" width="124" height="49.6" as="geometry"/>
                </mxCell>
                <mxCell id="37" value="Web Server API" style="shape=cylinder3;whiteSpace=wrap;html=1;boundedLbl=1;backgroundOutline=1;size=15;aspect=fixed;fillColor=#e3c800;fontColor=#000000;strokeColor=#B09500;fontSize=10;" vertex="1" parent="24">
                    <mxGeometry x="536.5701381509032" y="636.2467866323907" width="122.10796915167096" height="162.81491002570695" as="geometry"/>
                </mxCell>
                <mxCell id="38" value="" style="edgeStyle=orthogonalEdgeStyle;curved=1;html=1;elbow=vertical;" edge="1" parent="24" source="39" target="36">
                    <mxGeometry relative="1" as="geometry"/>
                </mxCell>
                <mxCell id="39" value="EventSource API" style="whiteSpace=wrap;html=1;aspect=fixed;rounded=1;" vertex="1" parent="24">
                    <mxGeometry x="450.0265674814027" y="859.8971722365038" width="129.82005141388174" height="51.92802056555269" as="geometry"/>
                </mxCell>
                <mxCell id="40" value="REST API" style="whiteSpace=wrap;html=1;aspect=fixed;rounded=1;" vertex="1" parent="24">
                    <mxGeometry x="606.4973432518597" y="859.8971722365038" width="129.82005141388174" height="51.92802056555269" as="geometry"/>
                </mxCell>
                <mxCell id="41" value="NodeMCU Family" style="shape=cylinder3;boundedLbl=1;backgroundOutline=1;size=15;aspect=fixed;fillColor=#76608a;fontColor=#ffffff;strokeColor=#432D57;whiteSpace=wrap;fontSize=8;" vertex="1" parent="24">
                    <mxGeometry x="452.79596174282676" y="370.17994858611826" width="84.83290488431876" height="113.11053984575835" as="geometry"/>
                </mxCell>
                <mxCell id="42" style="edgeStyle=orthogonalEdgeStyle;curved=1;html=1;exitX=0.5;exitY=1;exitDx=0;exitDy=0;entryX=0.5;entryY=0;entryDx=0;entryDy=0;entryPerimeter=0;elbow=vertical;" edge="1" parent="24" source="43" target="41">
                    <mxGeometry relative="1" as="geometry"/>
                </mxCell>
                <mxCell id="43" value="ESP8266" style="ellipse;whiteSpace=wrap;html=1;fillColor=#6d8764;fontColor=#ffffff;strokeColor=#3A5431;" vertex="1" parent="24">
                    <mxGeometry x="311.5568544102019" y="245.5012853470437" width="166.163655685441" height="77.12082262210797" as="geometry"/>
                </mxCell>
                <mxCell id="44" style="edgeStyle=orthogonalEdgeStyle;curved=1;html=1;exitX=0.5;exitY=1;exitDx=0;exitDy=0;entryX=0.5;entryY=0;entryDx=0;entryDy=0;entryPerimeter=0;elbow=vertical;" edge="1" parent="24" source="45" target="41">
                    <mxGeometry relative="1" as="geometry"/>
                </mxCell>
                <mxCell id="45" value="ESP32" style="ellipse;whiteSpace=wrap;html=1;fillColor=#6d8764;fontColor=#ffffff;strokeColor=#3A5431;" vertex="1" parent="24">
                    <mxGeometry x="501.95270988310307" y="245.5012853470437" width="166.163655685441" height="77.12082262210797" as="geometry"/>
                </mxCell>
                <mxCell id="46" value="" style="edgeStyle=orthogonalEdgeStyle;curved=1;html=1;elbow=vertical;" edge="1" parent="24" source="48" target="37">
                    <mxGeometry relative="1" as="geometry"/>
                </mxCell>
                <mxCell id="47" value="" style="edgeStyle=orthogonalEdgeStyle;curved=1;html=1;elbow=vertical;" edge="1" parent="24" source="48" target="37">
                    <mxGeometry relative="1" as="geometry"/>
                </mxCell>
                <mxCell id="48" value="&lt;font style=&quot;font-size: 8px&quot;&gt;ESPHOME Platform&lt;/font&gt;" style="ellipse;shape=cloud;rounded=1;labelBorderColor=none;strokeColor=#001DBC;fillColor=#0050ef;whiteSpace=wrap;html=1;fontColor=#ffffff;fontSize=8;" vertex="1" parent="24">
                    <mxGeometry x="612.0361317747078" y="456.2982005141388" width="166.163655685441" height="102.82776349614396" as="geometry"/>
                </mxCell>
                <mxCell id="49" style="edgeStyle=orthogonalEdgeStyle;curved=1;html=1;exitX=0.5;exitY=1;exitDx=0;exitDy=0;exitPerimeter=0;entryX=0.5;entryY=0;entryDx=0;entryDy=0;elbow=vertical;" edge="1" parent="24" source="37" target="39">
                    <mxGeometry relative="1" as="geometry"/>
                </mxCell>
                <mxCell id="50" value="&lt;font style=&quot;font-size: 8px;&quot;&gt;Native API Component&lt;/font&gt;" style="shape=cylinder3;whiteSpace=wrap;html=1;boundedLbl=1;backgroundOutline=1;size=15;fillColor=#e3c800;fontColor=#000000;strokeColor=#B09500;fontSize=8;" vertex="1" parent="24">
                    <mxGeometry x="751.8905419766206" y="636.2467866323907" width="131.54622741764078" height="162.81491002570695" as="geometry"/>
                </mxCell>
                <mxCell id="51" style="edgeStyle=orthogonalEdgeStyle;curved=1;html=1;exitX=0.5;exitY=1;exitDx=0;exitDy=0;exitPerimeter=0;elbow=vertical;" edge="1" parent="24" source="37" target="40">
                    <mxGeometry relative="1" as="geometry"/>
                </mxCell>
                <mxCell id="52" value="Homeassistant Platfrom" style="ellipse;shape=cloud;rounded=1;labelBorderColor=none;strokeColor=#001DBC;fillColor=#0050ef;whiteSpace=wrap;html=1;fontColor=#ffffff;fontSize=7;" vertex="1" parent="24">
                    <mxGeometry x="938.8246546227417" y="456.2982005141388" width="166.163655685441" height="102.82776349614396" as="geometry"/>
                </mxCell>
                <mxCell id="53" style="edgeStyle=orthogonalEdgeStyle;curved=1;html=1;exitX=0;exitY=0.5;exitDx=0;exitDy=0;entryX=1;entryY=0;entryDx=0;entryDy=87.5025;entryPerimeter=0;elbow=vertical;" edge="1" parent="24" source="54" target="50">
                    <mxGeometry relative="1" as="geometry"/>
                </mxCell>
                <mxCell id="54" value="Features" style="swimlane;fontStyle=0;childLayout=stackLayout;horizontal=1;startSize=30;horizontalStack=0;resizeParent=1;resizeParentMax=0;resizeLast=0;collapsible=1;marginBottom=0;rounded=1;labelBorderColor=none;strokeColor=default;fillColor=default;html=1;aspect=fixed;" vertex="1" parent="24">
                    <mxGeometry x="1237.9192348565355" y="448.58611825192804" width="460.1542416452442" height="222.80205655526993" as="geometry"/>
                </mxCell>
                <mxCell id="55" value="only the ESPHome tool and Home Assistant use this native API." style="text;strokeColor=none;fillColor=none;align=left;verticalAlign=middle;spacingLeft=4;spacingRight=4;overflow=hidden;points=[[0,0.5],[1,0.5]];portConstraint=eastwest;rotatable=0;rounded=1;labelBorderColor=none;html=1;aspect=fixed;fontFamily=Times New Roman;fontSize=10;" vertex="1" parent="54">
                    <mxGeometry y="30" width="460.1542416452442" height="64.26735218508998" as="geometry"/>
                </mxCell>
                <mxCell id="56" value="communicate with clients directly" style="text;strokeColor=none;fillColor=none;align=left;verticalAlign=middle;spacingLeft=4;spacingRight=4;overflow=hidden;points=[[0,0.5],[1,0.5]];portConstraint=eastwest;rotatable=0;rounded=1;labelBorderColor=none;html=1;fontFamily=Times New Roman;aspect=fixed;fontSize=10;" vertex="1" parent="54">
                    <mxGeometry y="94.26735218508998" width="460.1542416452442" height="64.26735218508998" as="geometry"/>
                </mxCell>
                <mxCell id="57" value="YAML Syntax" style="text;strokeColor=none;fillColor=none;align=left;verticalAlign=middle;spacingLeft=4;spacingRight=4;overflow=hidden;points=[[0,0.5],[1,0.5]];portConstraint=eastwest;rotatable=0;rounded=1;labelBorderColor=none;html=1;fontFamily=Times New Roman;aspect=fixed;fontSize=10;" vertex="1" parent="54">
                    <mxGeometry y="158.53470437017995" width="460.1542416452442" height="64.26735218508998" as="geometry"/>
                </mxCell>
                <mxCell id="58" style="edgeStyle=orthogonalEdgeStyle;curved=1;html=1;exitX=0.5;exitY=1;exitDx=0;exitDy=0;exitPerimeter=0;entryX=0.07;entryY=0.4;entryDx=0;entryDy=0;entryPerimeter=0;elbow=vertical;" edge="1" parent="24" source="41" target="48">
                    <mxGeometry relative="1" as="geometry"/>
                </mxCell>
                <mxCell id="59" style="edgeStyle=orthogonalEdgeStyle;curved=1;html=1;exitX=0.5;exitY=0;exitDx=0;exitDy=0;entryX=0.5;entryY=1;entryDx=0;entryDy=0;fontFamily=Times New Roman;fontSize=17;elbow=vertical;" edge="1" parent="24" source="71" target="36">
                    <mxGeometry relative="1" as="geometry"/>
                </mxCell>
                <mxCell id="60" style="edgeStyle=orthogonalEdgeStyle;curved=1;html=1;exitX=0.55;exitY=0.95;exitDx=0;exitDy=0;exitPerimeter=0;entryX=0.5;entryY=0;entryDx=0;entryDy=0;entryPerimeter=0;elbow=vertical;" edge="1" parent="24" source="48" target="50">
                    <mxGeometry relative="1" as="geometry"/>
                </mxCell>
                <mxCell id="61" style="edgeStyle=orthogonalEdgeStyle;curved=1;html=1;exitX=0.75;exitY=1;exitDx=0;exitDy=0;entryX=0.5;entryY=0;entryDx=0;entryDy=0;fontFamily=Helvetica;fontSize=11;elbow=vertical;strokeColor=default;" edge="1" parent="24" source="36" target="67">
                    <mxGeometry relative="1" as="geometry">
                        <Array as="points">
                            <mxPoint x="661.8852284803401" y="1120.822622107969"/>
                            <mxPoint x="671.5781083953241" y="1120.822622107969"/>
                            <mxPoint x="671.5781083953241" y="1205.6555269922878"/>
                            <mxPoint x="1050.9851222104144" y="1205.6555269922878"/>
                        </Array>
                    </mxGeometry>
                </mxCell>
                <mxCell id="62" value="callback" style="edgeLabel;html=1;align=center;verticalAlign=middle;resizable=0;points=[];fontSize=17;fontFamily=Times New Roman;" vertex="1" connectable="0" parent="61">
                    <mxGeometry x="0.2309" y="-1" relative="1" as="geometry">
                        <mxPoint x="-103" as="offset"/>
                    </mxGeometry>
                </mxCell>
                <mxCell id="63" style="edgeStyle=orthogonalEdgeStyle;curved=1;html=1;exitX=1;exitY=0.5;exitDx=0;exitDy=0;exitPerimeter=0;entryX=0.55;entryY=0.95;entryDx=0;entryDy=0;entryPerimeter=0;elbow=vertical;" edge="1" parent="24" source="50" target="52">
                    <mxGeometry relative="1" as="geometry"/>
                </mxCell>
                <mxCell id="64" style="edgeStyle=orthogonalEdgeStyle;curved=1;html=1;exitX=0.5;exitY=1;exitDx=0;exitDy=0;entryX=0.5;entryY=0;entryDx=0;entryDy=0;fontFamily=Times New Roman;fontSize=17;elbow=vertical;" edge="1" parent="24" source="32" target="68">
                    <mxGeometry relative="1" as="geometry"/>
                </mxCell>
                <mxCell id="65" value="Address Set" style="edgeLabel;html=1;align=center;verticalAlign=middle;resizable=0;points=[];fontSize=17;fontFamily=Times New Roman;" vertex="1" connectable="0" parent="64">
                    <mxGeometry x="-0.2272" y="2" relative="1" as="geometry">
                        <mxPoint x="-2" y="21" as="offset"/>
                    </mxGeometry>
                </mxCell>
                <mxCell id="66" value="NodeJS Modules" style="swimlane;rounded=1;labelBorderColor=none;fontFamily=Times New Roman;fontSize=17;strokeColor=default;fillColor=default;html=1;swimlaneFillColor=none;" vertex="1" parent="24">
                    <mxGeometry x="477.72051009564285" y="1250.6426735218508" width="1206.0712008501594" height="622.107969151671" as="geometry"/>
                </mxCell>
                <mxCell id="67" value="EventSource Handler API" style="whiteSpace=wrap;html=1;rounded=1;aspect=fixed;fillColor=#60a917;fontColor=#ffffff;strokeColor=#2D7600;" vertex="1" parent="66">
                    <mxGeometry x="472.18172157279486" y="186.37532133676092" width="187.6606683804627" height="75.06426735218508" as="geometry"/>
                </mxCell>
                <mxCell id="68" value="Addr Set Maintainer" style="rounded=1;whiteSpace=wrap;html=1;labelBorderColor=none;fontFamily=Times New Roman;fontSize=17;strokeColor=#314354;fillColor=#647687;fontColor=#ffffff;" vertex="1" parent="66">
                    <mxGeometry x="674.347502656748" y="64.26735218508998" width="261.7077577045696" height="77.12082262210797" as="geometry"/>
                </mxCell>
                <mxCell id="71" value="&lt;font style=&quot;font-size: 17px&quot;&gt;&lt;br&gt;eventhandler.js&lt;/font&gt;" style="shape=module;align=left;spacingLeft=20;align=center;verticalAlign=top;rounded=1;labelBorderColor=none;fontFamily=Times New Roman;strokeColor=default;fillColor=#666666;html=1;aspect=fixed;" vertex="1" parent="24">
                    <mxGeometry x="618.9596174282677" y="1461.439588688946" width="169.66580976863753" height="84.83290488431876" as="geometry"/>
                </mxCell>
                <mxCell id="72" style="edgeStyle=orthogonalEdgeStyle;curved=1;html=1;exitX=0;exitY=0.5;exitDx=0;exitDy=0;entryX=1;entryY=0.5;entryDx=0;entryDy=0;fontFamily=Times New Roman;fontSize=17;elbow=vertical;" edge="1" parent="24" source="67" target="71">
                    <mxGeometry relative="1" as="geometry"/>
                </mxCell>
                <mxCell id="73" style="edgeStyle=orthogonalEdgeStyle;curved=1;html=1;exitX=0;exitY=0.5;exitDx=0;exitDy=0;entryX=0.5;entryY=1;entryDx=0;entryDy=0;fontFamily=Times New Roman;fontSize=17;elbow=vertical;" edge="1" parent="24" source="100" target="71">
                    <mxGeometry relative="1" as="geometry">
                        <Array as="points">
                            <mxPoint x="1181" y="1553"/>
                            <mxPoint x="1126" y="1553"/>
                            <mxPoint x="1126" y="1625"/>
                            <mxPoint x="710" y="1625"/>
                            <mxPoint x="710" y="1546"/>
                        </Array>
                        <mxPoint x="1142.375132837407" y="1542.712082262211" as="sourcePoint"/>
                    </mxGeometry>
                </mxCell>
                <mxCell id="74" value="Single IP address" style="edgeLabel;html=1;align=center;verticalAlign=middle;resizable=0;points=[];fontSize=17;fontFamily=Times New Roman;" vertex="1" connectable="0" parent="73">
                    <mxGeometry x="-0.3605" y="-5" relative="1" as="geometry">
                        <mxPoint x="-93" as="offset"/>
                    </mxGeometry>
                </mxCell>
                <mxCell id="70" style="edgeStyle=orthogonalEdgeStyle;curved=1;html=1;exitX=0.5;exitY=1;exitDx=0;exitDy=0;fontFamily=Times New Roman;fontSize=17;elbow=vertical;entryX=0.5;entryY=0;entryDx=0;entryDy=0;" edge="1" parent="24" source="68" target="100">
                    <mxGeometry relative="1" as="geometry">
                        <mxPoint x="1243.2748757679983" y="1507.712082262211" as="targetPoint"/>
                    </mxGeometry>
                </mxCell>
            </root>
        </mxGraphModel>
    </diagram>
</mxfile>